<?xml version="1.0" encoding="UTF-8"?>
<svg version="1.1" xmlns="http://www.w3.org/2000/svg" width="1024" height="1024">
<path d="M0 0 C337.92 0 675.84 0 1024 0 C1024 337.92 1024 675.84 1024 1024 C686.08 1024 348.16 1024 0 1024 C0 686.08 0 348.16 0 0 Z " fill="#FDFDFD" transform="translate(0,0)"/>
<path d="M0 0 C10.00323758 4.00129503 20.21363441 8.26638872 27 17 C30.64472014 26.53060883 29.7098235 37.3624325 29.32946134 47.40110898 C29.20177074 51.37741421 29.19889542 55.35397659 29.18113708 59.33201599 C29.13445702 65.99917767 29.00853447 72.66070927 28.82446289 79.32543945 C28.56522354 88.71558063 28.44963788 98.10349389 28.36279786 107.49659455 C28.29052318 114.81187088 28.18346319 122.12672397 28.06640625 129.44140625 C28.05395536 130.22232297 28.04150446 131.00323969 28.02867627 131.80782056 C27.9540144 136.29717777 27.86095761 140.78554467 27.74177742 145.27394676 C27.69125703 147.27631379 27.65423581 149.27900724 27.61764526 151.28167725 C27.563769 153.0789904 27.563769 153.0789904 27.50880432 154.91261292 C27.47009138 156.46795164 27.47009138 156.46795164 27.43059635 158.05471134 C26.73607534 162.80525059 25.00945702 166.06625226 21.5 169.3125 C18.25794819 171.50088497 15.80532139 172.12443972 11.98032761 172.13701439 C11.16007339 172.14208893 10.33981918 172.14716347 9.49470878 172.15239179 C8.14341955 172.15313843 8.14341955 172.15313843 6.76483154 172.15390015 C5.80757242 172.1582824 4.85031331 172.16266465 3.86404634 172.1671797 C0.64210966 172.18058187 -2.57979965 172.18674974 -5.80175781 172.19287109 C-8.10608545 172.20077088 -10.41041185 172.20903975 -12.71473694 172.21765137 C-20.29418758 172.24388353 -27.87364379 172.25917917 -35.453125 172.2734375 C-38.06036126 172.27879649 -40.66759749 172.284174 -43.27483368 172.28956985 C-54.1179827 172.3111994 -64.96112941 172.33008845 -75.80429459 172.34119225 C-78.6177394 172.34412191 -81.43118418 172.34708358 -84.24462891 172.35009766 C-84.9438907 172.35084371 -85.64315249 172.35158976 -86.36360404 172.35235842 C-97.69134875 172.36501221 -109.0189365 172.39823634 -120.34660783 172.43989949 C-131.97795823 172.48232874 -143.60921997 172.50548076 -155.24064708 172.51111281 C-161.77072591 172.51477022 -168.30053861 172.52683365 -174.83054352 172.55921555 C-180.97341482 172.58924103 -187.11585818 172.59562741 -193.25878716 172.58383179 C-195.51344585 172.5836106 -197.76812408 172.59195275 -200.02271461 172.60948563 C-203.10129252 172.63212326 -206.17831159 172.62390649 -209.25689697 172.60800171 C-210.14883357 172.6218838 -211.04077017 172.63576588 -211.95973516 172.65006864 C-217.13500358 172.58420418 -220.54064306 171.79669536 -224.58652198 168.46643341 C-228.4733255 164.43401235 -229.37455958 160.31787094 -229.46170044 154.87896729 C-229.48750183 153.67353271 -229.51330322 152.46809814 -229.53988647 151.22613525 C-229.55905624 149.26229889 -229.55905624 149.26229889 -229.57861328 147.25878906 C-229.60234448 145.85540993 -229.62715305 144.45204866 -229.6529541 143.04870605 C-229.73127334 138.45452077 -229.77749334 133.860258 -229.8203125 129.265625 C-229.83640408 127.67905385 -229.85253663 126.09248311 -229.86870956 124.50591278 C-229.93353873 117.90385651 -229.98974337 111.30182126 -230.02357674 104.69952774 C-230.07228028 95.26042365 -230.17180987 85.82502654 -230.34277928 76.3873198 C-230.4591115 69.73741675 -230.51749985 63.08850192 -230.53333843 56.43760848 C-230.54426881 52.47075612 -230.57994898 48.50786618 -230.67764664 44.54212189 C-231.24211323 20.48519212 -231.24211323 20.48519212 -227.53609467 14.72447205 C-223.59832074 10.75896838 -219.16054353 8.9422963 -214 7 C-212.21320942 5.84676591 -210.45153471 4.65067592 -208.75 3.375 C-205.36464088 1 -205.36464088 1 -202 1 C-202 48.52 -202 96.04 -202 145 C-135.34 145 -68.68 145 0 145 C0 97.15 0 49.3 0 0 Z " fill="#8CB47E" transform="translate(607,419)"/>
<path d="M0 0 C1.29808594 -0.01933594 2.59617187 -0.03867187 3.93359375 -0.05859375 C8.1256162 0.51448144 9.72145279 1.33580625 12.5625 4.4375 C13.6015625 7.1640625 13.6015625 7.1640625 14.1875 10.0625 C14.98425376 14.59860162 14.98425376 14.59860162 18.5625 17.4375 C15.76739169 23.9594194 10.41266893 30.39280631 4.5625 34.4375 C0.56797591 35.90658082 -3.50864388 36.01396507 -7.72265625 36.19921875 C-17.34099506 36.81616793 -25.52749216 43.11557794 -32.4375 49.4375 C-40.41271008 58.579814 -43.25060126 70.0130185 -42.79296875 81.9609375 C-41.66497567 92.99295778 -36.72761169 103.89114012 -28.4375 111.4375 C-25.24320508 113.74049252 -21.93033688 115.62581929 -18.4375 117.4375 C-17.31408203 118.06205078 -17.31408203 118.06205078 -16.16796875 118.69921875 C-6.70076121 123.29573349 5.157119 122.82718117 15.0625 119.8125 C26.52657115 115.31770708 35.26186115 107.88174539 40.5 96.625 C41.54635936 94.16694225 42.4676184 91.90763404 42.99609375 89.2890625 C43.72982665 86.89051496 44.72206115 86.16927338 46.6875 84.625 C49.75209957 82.12914594 52.46473302 79.50152918 55.11328125 76.578125 C55.75185059 75.88952393 56.39041992 75.20092285 57.04833984 74.49145508 C58.33578104 73.09530449 59.60125495 71.67852908 60.84228516 70.2409668 C65.28358033 65.50464526 65.28358033 65.50464526 68.93408203 65.31298828 C72.38835568 65.94402391 74.84695842 66.86258509 77.58984375 69.06640625 C78.99016527 72.48004144 79.11506298 75.74136184 79.125 79.375 C79.18010742 80.42977539 79.18010742 80.42977539 79.23632812 81.50585938 C79.26045496 84.36622992 79.11494861 86.71100288 77.34741211 89.03540039 C74.36908077 91.69538615 71.94715853 92.8940834 68 93 C65.64229311 93.27718711 65.64229311 93.27718711 63.5625 94.4375 C61.24194663 98.23222133 59.95143094 102.23166093 58.5625 106.4375 C58.18738281 107.18644531 57.81226563 107.93539062 57.42578125 108.70703125 C56.40515255 110.38691095 56.40515255 110.38691095 56.6875 112.25 C57.73122386 114.85930965 59.16797451 117.12614855 60.72265625 119.4609375 C61.94560608 122.33913571 61.95693698 124.33667857 61.5625 127.4375 C59.6640625 130.140625 59.6640625 130.140625 57.1875 132.6875 C56.37539063 133.53828125 55.56328125 134.3890625 54.7265625 135.265625 C50.57112689 139.43606219 50.57112689 139.43606219 47.9375 139.875 C43.92725023 139.35515281 41.87181067 137.919483 38.6875 135.53125 C34.70361923 133.48072313 31.27398688 134.25685522 27.0546875 135.328125 C19.85006064 137.83842065 19.85006064 137.83842065 14.90625 143.3671875 C13.89320634 146.51541195 13.89320634 146.51541195 13.3359375 149.6328125 C12.38331635 153.08726697 11.49801155 154.37926777 8.5625 156.4375 C5.06640625 157.00390625 5.06640625 157.00390625 1.125 157 C-0.17308594 157.02191406 -1.47117187 157.04382813 -2.80859375 157.06640625 C-7.29112141 156.28956346 -8.7257487 155.03627276 -11.4375 151.4375 C-12.125 148.97265625 -12.125 148.97265625 -12.4375 146.5 C-13.38629737 142.77694131 -14.04832785 141.69712508 -17.30078125 139.52734375 C-20.64346712 137.98660405 -23.96169807 136.64647458 -27.4375 135.4375 C-28.97277344 134.77621094 -28.97277344 134.77621094 -30.5390625 134.1015625 C-33.44161153 133.13645034 -33.44161153 133.13645034 -36.03515625 134.5546875 C-36.84855469 135.13476562 -37.66195312 135.71484375 -38.5 136.3125 C-41.04980868 138.10904766 -42.84683742 139.32698294 -45.921875 139.90234375 C-49.44767386 139.25083744 -51.04346609 137.57374699 -53.625 135.125 C-54.48480469 134.32449219 -55.34460938 133.52398438 -56.23046875 132.69921875 C-58.4375 130.4375 -58.4375 130.4375 -60.4375 127.4375 C-60.27746337 123.19652938 -59.74949002 120.88713268 -57.3125 117.375 C-55.19650495 114.64075784 -55.19650495 114.64075784 -55.4375 111.75 C-56.64897464 107.73699027 -58.07929283 103.83246008 -59.59765625 99.92578125 C-60.4375 97.4375 -60.4375 97.4375 -60.4375 94.4375 C-61.52417969 94.30794922 -61.52417969 94.30794922 -62.6328125 94.17578125 C-63.59960938 94.03527344 -64.56640625 93.89476562 -65.5625 93.75 C-66.51382812 93.62238281 -67.46515625 93.49476563 -68.4453125 93.36328125 C-72.47016113 92.11799519 -74.58883947 90.5439955 -77.4375 87.4375 C-78.03645297 84.43966361 -78.24255921 82.4010856 -78.125 79.4375 C-78.13982422 78.73882812 -78.15464844 78.04015625 -78.16992188 77.3203125 C-78.1084909 73.48991039 -77.54905998 71.58376317 -75.21484375 68.5234375 C-72.4142543 66.4200412 -70.70579411 65.69549982 -67.3125 65.0625 C-63.0679029 63.98598453 -63.0679029 63.98598453 -60.5625 60.3125 C-60.18505958 59.02154434 -59.81028136 57.72980872 -59.4375 56.4375 C-58.70061904 54.88951985 -57.95011465 53.34796573 -57.1875 51.8125 C-56.03844796 49.19619689 -55.4375 47.69083964 -55.4375 44.8125 C-56.56497752 42.13474089 -57.96996696 39.78278901 -59.59765625 37.37890625 C-60.84911615 34.48599662 -60.86438198 32.56538069 -60.4375 29.4375 C-58.83952333 27.12267399 -57.47617518 25.42607955 -55.5 23.5 C-55.00218018 23.01072021 -54.50436035 22.52144043 -53.99145508 22.01733398 C-51.73292621 19.96271759 -49.89955704 18.55194137 -46.9140625 17.8125 C-41.85170681 18.22716395 -38.55781916 20.56285872 -34.4375 23.4375 C-32.61029879 23.2278378 -32.61029879 23.2278378 -30.4375 22.4375 C-29.2721875 22.12296875 -28.106875 21.8084375 -26.90625 21.484375 C-18.97504259 19.16623806 -18.97504259 19.16623806 -13.70703125 13.25390625 C-12.70035185 9.79457843 -12.70035185 9.79457843 -12.17578125 6.36328125 C-11.4375 3.4375 -11.4375 3.4375 -9.8203125 1.5703125 C-6.47502806 -0.02006863 -3.69128085 0.00365836 0 0 Z " fill="#3C77AB" transform="translate(503.4375,386.5625)"/>
<path d="M0 0 C4.73333178 2.24261719 9.02161507 5.18198347 13.28637695 8.20166016 C14.68326125 9.17597862 16.08040833 10.14992041 17.4777832 11.12353516 C18.57050537 11.88827148 18.57050537 11.88827148 19.68530273 12.66845703 C23.68104413 15.45447856 27.70313602 18.20190105 31.72387695 20.95166016 C32.46677979 21.46140381 33.20968262 21.97114746 33.97509766 22.49633789 C34.71203857 23.00108643 35.44897949 23.50583496 36.20825195 24.02587891 C36.95236328 24.55487793 37.69647461 25.08387695 38.46313477 25.62890625 C41.02624796 27.37089547 41.02624796 27.37089547 44.19555664 28.84082031 C47.72304825 30.71177522 50.27412742 32.30976392 52.97387695 35.26416016 C54.44321463 41.0072853 54.12058161 46.39467774 53.72387695 52.26416016 C53.66360338 53.81733886 53.60886435 55.37074276 53.55981445 56.92431641 C53.42831414 60.70987516 53.22186827 64.48451817 52.97387695 68.26416016 C47.70758094 65.43803913 42.72111444 62.5193574 37.91137695 58.95166016 C30.32963537 53.41090603 22.50849509 48.24046542 14.67675781 43.06176758 C13.20734741 42.08880737 13.20734741 42.08880737 11.70825195 41.09619141 C10.74983398 40.46664551 9.79141602 39.83709961 8.80395508 39.18847656 C6.89757529 37.8922304 5.02593385 36.54355709 3.19067383 35.1484375 C2.31991211 34.48924316 1.44915039 33.83004883 0.55200195 33.15087891 C-0.59413574 32.24728638 -0.59413574 32.24728638 -1.76342773 31.32543945 C-4.02756852 29.9683167 -4.02756852 29.9683167 -6.61621094 30.94750977 C-9.87155802 32.72606177 -12.77395409 34.89313858 -15.71362305 37.13916016 C-21.35177463 41.36163245 -27.08535771 45.38307486 -32.96362305 49.26416016 C-40.72407619 54.39070245 -48.40720757 59.61726412 -56.05834961 64.90527344 C-59.37712318 67.19712129 -62.7019845 69.48010439 -66.02612305 71.76416016 C-67.36858532 72.68731636 -68.71103327 73.6104934 -70.0534668 74.53369141 C-72.62779762 76.30366149 -75.20334495 78.07183701 -77.7800293 79.83837891 C-86.65132446 85.92371379 -95.48582897 92.06060992 -104.31201172 98.21118164 C-111.25410179 103.04402142 -118.22602817 107.83091767 -125.21777344 112.59155273 C-131.31316703 116.75132182 -137.34492046 120.99694043 -143.33422852 125.30810547 C-150.79193399 130.63211471 -156.51148638 134.5887785 -166.02612305 133.26416016 C-169.16206458 131.99643911 -170.59158853 130.74364652 -172.83862305 128.26416016 C-174.6831333 123.60434478 -174.78264255 119.20026268 -174.02612305 114.26416016 C-172.21362305 111.57666016 -172.21362305 111.57666016 -169.02612305 109.26416016 C-167.9278418 108.43078125 -167.9278418 108.43078125 -166.80737305 107.58056641 C-159.40526269 102.04013139 -151.71244348 96.88647761 -144.08032227 91.66992188 C-141.49040089 89.89754639 -138.90594162 88.11731389 -136.3215332 86.33691406 C-130.3051341 82.19289546 -124.27477492 78.07002431 -118.23413086 73.96142578 C-108.51967577 67.35272 -98.84946422 60.68425185 -89.21142578 53.96459961 C-83.82903884 50.2122939 -78.43815272 46.47357628 -73.02612305 42.76416016 C-66.5052739 38.29398915 -60.01359856 33.78260871 -53.52612305 29.26416016 C-37.97961038 18.43746385 -37.97961038 18.43746385 -31.68823242 14.15942383 C-28.33820064 11.87828226 -25.03635962 9.5497958 -21.7722168 7.14697266 C-21.06186279 6.63368408 -20.35150879 6.12039551 -19.61962891 5.59155273 C-18.2693944 4.61450257 -16.92939398 3.62307336 -15.60253906 2.61450195 C-10.45889084 -1.07034842 -6.08568546 -2.21017664 0 0 Z " fill="#3D77AB" transform="translate(511.026123046875,292.73583984375)"/>
<path d="M0 0 C0.8065654 -0.00570007 1.6131308 -0.01140015 2.44413757 -0.01727295 C4.15309333 -0.02672695 5.86206735 -0.03325852 7.57104492 -0.03710938 C10.17854916 -0.0467982 12.78525953 -0.07781 15.39257812 -0.109375 C17.05338074 -0.11590685 18.71418899 -0.12115661 20.375 -0.125 C21.1522493 -0.1373468 21.9294986 -0.1496936 22.7303009 -0.16241455 C27.2993973 -0.14373127 30.37607596 0.18275547 33.88671875 3.203125 C36.40800464 7.45887093 37.25794774 10.55900018 37.22729492 15.48388672 C37.22695503 17.31510574 37.22695503 17.31510574 37.22660828 19.18331909 C37.21112442 20.48665192 37.19564056 21.78998474 37.1796875 23.1328125 C37.17408578 24.49186737 37.16981841 25.85092834 37.16682434 27.20999146 C37.15542069 30.77096555 37.12599304 34.33156715 37.0927124 37.89239502 C37.06191418 41.53237877 37.04829827 45.17242325 37.03320312 48.8125 C37.00111831 55.94285986 36.94997701 63.07296799 36.88671875 70.203125 C37.66607285 70.50455414 38.44542694 70.80598328 39.24839783 71.11654663 C41.91929692 72.21654215 43.98211009 73.50429304 46.328125 75.1796875 C47.1533667 75.76419678 47.9786084 76.34870605 48.82885742 76.95092773 C49.69357666 77.57040283 50.5582959 78.18987793 51.44921875 78.828125 C53.24792217 80.10395896 55.04739838 81.37870413 56.84765625 82.65234375 C58.14848145 83.57345947 58.14848145 83.57345947 59.47558594 84.51318359 C62.47302356 86.61406079 65.51231873 88.63496181 68.57421875 90.640625 C82.95771034 100.16841304 82.95771034 100.16841304 84.88671875 105.203125 C85.34897776 109.97980142 85.38645654 112.22215823 83.19921875 116.515625 C80.26825478 119.92188042 78.27653421 121.8930819 73.7019043 122.48657227 C66.89549174 122.74740803 63.21249895 121.29208855 57.82421875 117.265625 C56.27640884 116.17265692 54.72820757 115.08024294 53.1796875 113.98828125 C52.3448584 113.38773926 51.5100293 112.78719727 50.64990234 112.16845703 C45.92537545 108.80810701 41.11025206 105.58040906 36.30715942 102.33395386 C32.72385436 99.90818392 29.1518056 97.46582994 25.57714844 95.02734375 C22.87463659 93.12759034 22.87463659 93.12759034 19.76113892 91.52484131 C16.88671875 89.203125 16.88671875 89.203125 16.16519165 86.02667236 C16.17851532 84.77424744 16.19183899 83.52182251 16.20556641 82.23144531 C16.20469025 81.5383577 16.20381409 80.84527008 16.20291138 80.13117981 C16.20708239 77.84671168 16.25370079 75.56520302 16.30078125 73.28125 C16.31197538 71.69514571 16.32051455 70.10902065 16.32650757 68.52288818 C16.34938957 64.35319487 16.40830516 60.18476063 16.47473145 56.01556396 C16.53616888 51.75924716 16.56352556 47.50272639 16.59375 43.24609375 C16.65805098 34.89786043 16.76042046 26.55064944 16.88671875 18.203125 C12.92671875 18.203125 8.96671875 18.203125 4.88671875 18.203125 C4.88671875 38.333125 4.88671875 58.463125 4.88671875 79.203125 C0.61963565 77.49629176 -2.06814471 75.96006286 -5.67578125 73.265625 C-7.06990234 72.23115234 -7.06990234 72.23115234 -8.4921875 71.17578125 C-9.35714844 70.52480469 -10.22210937 69.87382812 -11.11328125 69.203125 C-11.81633896 68.78420486 -12.51939667 68.36528473 -13.24375916 67.93367004 C-15.11328125 66.203125 -15.11328125 66.203125 -15.62794495 63.64286804 C-15.63414352 62.61949844 -15.6403421 61.59612885 -15.64672852 60.54174805 C-15.66256485 59.38011642 -15.67840118 58.2184848 -15.69471741 57.02165222 C-15.6872776 55.13728203 -15.6872776 55.13728203 -15.6796875 53.21484375 C-15.68588608 51.92375198 -15.69208466 50.63266022 -15.69847107 49.30244446 C-15.70888203 46.56774088 -15.70430772 43.83355732 -15.68969727 41.09887695 C-15.67255241 37.60477648 -15.69594362 34.1123271 -15.73118687 30.61841106 C-15.75852366 27.27545988 -15.74841899 23.93290142 -15.7421875 20.58984375 C-15.75544571 19.33966965 -15.76870392 18.08949554 -15.78236389 16.80143738 C-15.67878812 7.12336562 -15.67878812 7.12336562 -12.69897461 3.42895508 C-8.51042093 -0.1766576 -5.32698833 0.02890133 0 0 Z " fill="#3F77AA" transform="translate(591.11328125,303.796875)"/>
<path d="M0 0 C3 2.0625 3 2.0625 5 4 C5 4.66 5 5.32 5 6 C5.66 6 6.32 6 7 6 C7.2784375 5.13375 7.2784375 5.13375 7.5625 4.25 C10.15513997 0.19195483 14.50441954 -1.50147318 19 -3 C26.06556586 -3.77797747 32.01018043 -2.95617025 38 1 C43.59109443 5.90713531 47.31737362 11.7436187 48.28973389 19.23101807 C48.40933556 21.62222135 48.44215335 23.99646318 48.43359375 26.390625 C48.4388356 27.25766052 48.44407745 28.12469604 48.44947815 29.01800537 C48.45586065 30.83653701 48.45461066 32.65511015 48.44604492 34.47363281 C48.43747969 37.25659854 48.46643567 40.03754612 48.49804688 42.8203125 C48.49965778 44.59374939 48.49908348 46.3671899 48.49609375 48.140625 C48.50732773 48.96983459 48.51856171 49.79904419 48.53013611 50.65338135 C48.4845704 54.41633144 48.4347476 56.38656049 46.21508789 59.51855469 C43.49769135 61.33594278 41.21787144 61.61638859 37.96875 61.46484375 C34.6463832 60.68039603 33.04493569 58.60264542 31 56 C29.45992025 52.91984049 29.84317567 49.67008694 29.82421875 46.2890625 C29.80102078 44.71873659 29.77690345 43.14842404 29.75195312 41.578125 C29.71683208 39.10049496 29.6874911 36.62335654 29.67407227 34.14550781 C29.65859134 31.75525302 29.61838497 29.36643691 29.57421875 26.9765625 C29.57612717 26.23789948 29.57803558 25.49923645 29.58000183 24.7381897 C29.49681581 21.23756959 29.26274752 19.33898357 27.08911133 16.53466797 C24.19465318 14.40838961 22.38515713 14.43293466 18.90234375 14.6015625 C16.00233861 15.20895577 14.71691329 16.66499792 13 19 C11.43295844 22.13408312 11.84296363 25.48801884 11.82421875 28.9296875 C11.80102102 30.54558595 11.7769037 32.16147141 11.75195312 33.77734375 C11.71682906 36.32739965 11.6874896 38.87697765 11.67407227 41.42724609 C11.65859473 43.88698293 11.61839006 46.34532046 11.57421875 48.8046875 C11.57612717 49.5652243 11.57803558 50.32576111 11.58000183 51.10934448 C11.49998747 54.57363666 11.26348221 56.63534437 9.21020508 59.47705078 C6.54869791 61.31097122 4.29704267 61.52077589 1.09765625 61.62890625 C-2.2988222 60.61059521 -3.78488347 58.72344498 -6 56 C-6.47209114 53.14409348 -6.6539774 50.8755003 -6.6015625 48.03125 C-6.60956879 47.27332153 -6.61757507 46.51539307 -6.62582397 45.73449707 C-6.64882691 43.32244861 -6.6394581 40.91209264 -6.625 38.5 C-6.62114501 36.088225 -6.62464837 33.6771948 -6.64559937 31.26550293 C-6.657633 29.76855887 -6.65511049 28.27140523 -6.63589478 26.77453613 C-6.65959606 22.33854327 -7.26098449 19.52528389 -10 16 C-12.28726223 14.85636888 -13.82852427 14.73498068 -16.375 14.625 C-17.14585937 14.57601562 -17.91671875 14.52703125 -18.7109375 14.4765625 C-22.22361459 15.27980265 -23.10422387 16.98997077 -25 20 C-25.36352771 22.93931284 -25.5117863 25.51020888 -25.46875 28.44140625 C-25.47579956 29.24609848 -25.48284912 30.05079071 -25.4901123 30.87986755 C-25.51210155 33.44107106 -25.50914997 36.00122992 -25.5 38.5625 C-25.48796126 41.93936672 -25.50163272 45.31467635 -25.53125 48.69140625 C-25.51993042 49.46440567 -25.50861084 50.23740509 -25.49694824 51.03382874 C-25.52983304 54.53263051 -25.71925841 56.60829168 -27.78320312 59.48803711 C-30.51047519 61.34816882 -32.75820343 61.55720468 -36.03125 61.3984375 C-39.10989729 60.77537793 -40.85219078 59.21289435 -43 57 C-44.22727394 54.54545212 -44.18497767 52.82416478 -44.26879883 50.07885742 C-44.30165482 49.05406784 -44.3345108 48.02927826 -44.36836243 46.97343445 C-44.39762314 45.86200577 -44.42688385 44.75057709 -44.45703125 43.60546875 C-44.48729904 42.46596268 -44.51756683 41.3264566 -44.54875183 40.15242004 C-44.6096086 37.73734718 -44.66740792 35.32219566 -44.72241211 32.90698242 C-44.78234634 30.43246208 -44.85132007 27.95814375 -44.92944336 25.48413086 C-45.04194035 21.92061627 -45.12751685 18.35735392 -45.20703125 14.79296875 C-45.24641312 13.68761276 -45.28579498 12.58225677 -45.32637024 11.44340515 C-45.45238157 3.81981266 -45.45238157 3.81981266 -43.2331543 -0.2019043 C-40.5190183 -2.38727782 -38.42928808 -2.64169707 -34.97265625 -2.44140625 C-31.95955422 -1.76718738 -30.14443056 -0.14443056 -28 2 C-27.505 1.731875 -27.01 1.46375 -26.5 1.1875 C-17.12060056 -3.26771473 -9.6263721 -4.86449933 0 0 Z " fill="#8DB582" transform="translate(405,665)"/>
<path d="M0 0 C2.09996144 1.21553785 4.04963014 2.49577213 5.8828125 4.08984375 C5.9859375 3.47109375 6.0890625 2.85234375 6.1953125 2.21484375 C6.8828125 0.08984375 6.8828125 0.08984375 9.8828125 -1.91015625 C16.94080483 -2.47031437 16.94080483 -2.47031437 19.97688293 -0.66493225 C21.8828125 1.08984375 21.8828125 1.08984375 22.39506531 3.14552307 C22.40093155 3.93224899 22.40679779 4.71897491 22.4128418 5.52954102 C22.42933273 6.42379288 22.44582367 7.31804474 22.46281433 8.23939514 C22.46090591 9.20195724 22.4589975 10.16451935 22.45703125 11.15625 C22.47119583 12.14608383 22.48536041 13.13591766 22.49995422 14.15574646 C22.54193647 17.32138899 22.55711032 20.48646169 22.5703125 23.65234375 C22.59933919 26.82153101 22.63385763 29.99057237 22.67280579 33.15965271 C22.69534176 35.13278119 22.71113148 37.1060001 22.71965027 39.07923889 C22.72668472 39.97033859 22.73371918 40.86143829 22.7409668 41.77954102 C22.74444626 42.56547134 22.74792572 43.35140167 22.75151062 44.16114807 C22.76403588 46.17348266 22.76403588 46.17348266 23.8828125 48.08984375 C24.34371785 55.23387667 24.34371785 55.23387667 22.5703125 58.52734375 C20.08732185 60.82640917 17.88585877 61.08944141 14.5703125 61.52734375 C9.44876928 60.91970303 8.17356714 58.94243455 4.8828125 55.08984375 C4.1196875 55.70859375 3.3565625 56.32734375 2.5703125 56.96484375 C-4.29605859 62.3940674 -11.65826802 61.94430116 -20.1171875 61.08984375 C-27.65111788 59.09016352 -32.65739522 53.18489319 -37.1171875 47.08984375 C-41.68520683 39.1381064 -42.21529342 30.08693007 -41.1171875 21.08984375 C-37.48697338 10.08540158 -31.64944634 3.83984419 -21.7421875 -1.84765625 C-13.98057799 -4.12261076 -7.22023335 -3.63599565 0 0 Z " fill="#4078AA" transform="translate(670.1171875,664.91015625)"/>
<path d="M0 0 C0.74121094 -0.02191406 1.48242188 -0.04382813 2.24609375 -0.06640625 C4.87455342 0.64722277 6.72756246 1.58166049 8.58764648 3.60327148 C10.94005772 8.33107018 10.04645184 14.23721051 9.875 19.375 C9.771875 23.726875 9.66875 28.07875 9.5625 32.5625 C20.7825 32.5625 32.0025 32.5625 43.5625 32.5625 C43.36518277 23.9011814 43.36518277 23.9011814 43.11206055 15.24145508 C42.99726724 5.27813636 42.99726724 5.27813636 45.83203125 2.234375 C49.6444999 -0.1000121 49.6444999 -0.1000121 52.5625 0 C53.201875 -0.00128906 53.84125 -0.00257813 54.5 -0.00390625 C57.64019251 0.85845722 59.26751043 2.25821292 61.5625 4.5625 C62.19068909 7.87062073 62.19068909 7.87062073 62.19360352 11.85375977 C62.20075882 12.58104279 62.20791412 13.30832581 62.21528625 14.05764771 C62.23216927 16.45704323 62.21277758 18.85456931 62.19140625 21.25390625 C62.19223491 22.92252253 62.19469417 24.59113873 62.19871521 26.25975037 C62.20157279 29.75439057 62.18687505 33.2483897 62.15942383 36.74291992 C62.12531403 41.22464219 62.13136802 45.7052201 62.1500864 50.18699741 C62.16064838 53.63141946 62.15172647 57.07557463 62.13670158 60.51997185 C62.13151514 62.17259873 62.13200718 63.82525342 62.13824654 65.47787666 C62.1436904 67.78607384 62.12335454 70.09262512 62.09594727 72.40063477 C62.08974869 73.71427505 62.08355011 75.02791534 62.0771637 76.38136292 C61.5625 79.5625 61.5625 79.5625 59.7752533 81.47886658 C56.40114477 83.13124092 53.18286581 83.3526592 49.5625 82.5625 C46.87144802 80.38675584 45.10717072 78.65184144 43.5625 75.5625 C43.47739795 73.6031396 43.45532344 71.64087206 43.46484375 69.6796875 C43.46734131 68.62894043 43.46983887 67.57819336 43.47241211 66.49560547 C43.48151611 65.15643066 43.49062012 63.81725586 43.5 62.4375 C43.5309375 56.064375 43.5309375 56.064375 43.5625 49.5625 C32.3425 49.5625 21.1225 49.5625 9.5625 49.5625 C9.72052031 58.92673689 9.72052031 58.92673689 9.92285156 68.29003906 C9.93783691 70.0413916 9.93783691 70.0413916 9.953125 71.828125 C9.97407227 73.02211914 9.99501953 74.21611328 10.01660156 75.44628906 C9.47391572 79.17039775 8.51566436 80.31045642 5.5625 82.5625 C2.50033675 83.29569402 -0.34927501 83.14154219 -3.4375 82.5625 C-5.93910818 80.68629387 -7.05695652 79.32358697 -8.4375 76.5625 C-8.55014384 74.30689037 -8.59689362 72.0479027 -8.61450195 69.78955078 C-8.62107315 69.09342682 -8.62764435 68.39730286 -8.63441467 67.68008423 C-8.65415198 65.37265927 -8.66581041 63.06529936 -8.67578125 60.7578125 C-8.67985678 59.97029476 -8.6839323 59.18277702 -8.68813133 58.37139511 C-8.70899273 54.20414237 -8.7232948 50.03692258 -8.73266602 45.86962891 C-8.74373794 41.56295458 -8.77814613 37.2567959 -8.81783772 32.95030403 C-8.84396576 29.64060497 -8.85235436 26.33102955 -8.85594749 23.02123642 C-8.86082244 21.43358752 -8.87246228 19.84594447 -8.89098549 18.25839615 C-8.91530005 16.03659263 -8.91442702 13.81613374 -8.9074707 11.59423828 C-8.91333694 10.33008087 -8.91920319 9.06592346 -8.92524719 7.76345825 C-8.12499022 2.51157939 -5.29381675 -0.00917473 0 0 Z " fill="#8CB582" transform="translate(212.4375,643.4375)"/>
<path d="M0 0 C7.91043825 4.81900261 15.01891589 11.25582347 17.37890625 20.44921875 C18.97762032 31.53237819 17.92376787 41.07498703 11.37890625 50.44921875 C5.92845525 56.98975995 -1.14082671 61.50696686 -9.62109375 62.44921875 C-19.58990396 63.16248967 -27.34571022 61.01800944 -35.546875 55.25 C-39.09982028 52.16542792 -41.36037469 48.5359032 -43.62109375 44.44921875 C-44.23984375 43.39734375 -44.85859375 42.34546875 -45.49609375 41.26171875 C-48.30259142 31.75080997 -47.26013647 22.8857458 -43.03125 14.00390625 C-38.89336474 6.50757118 -32.71532586 1.49247146 -24.7578125 -1.69921875 C-16.67561185 -3.89339028 -7.62137598 -3.57840553 0 0 Z " fill="#8DB582" transform="translate(332.62109375,664.55078125)"/>
<path d="M0 0 C0.75023437 -0.0103125 1.50046875 -0.020625 2.2734375 -0.03125 C5.6557362 0.73285735 7.2068849 2.01292302 9.625 4.5 C10.09415941 7.31188126 10.25503476 9.53258949 10.19140625 12.3359375 C10.19704086 13.09290924 10.20267548 13.84988098 10.20848083 14.62979126 C10.22491894 17.04549239 10.20941218 19.45936291 10.1875 21.875 C10.17086257 24.28332816 10.1618791 26.69043749 10.17723083 29.0987854 C10.18645189 30.59470024 10.17754284 32.09087381 10.14759827 33.58651733 C10.17606236 39.05138317 11.75029277 42.62529277 15.625 46.5 C20.39375143 46.78051479 24.2640375 46.52835465 28.625 44.5 C31.23677866 40.90035512 30.90426552 36.89175017 30.8984375 32.62890625 C30.91872419 31.06965425 30.93957493 29.51040951 30.9609375 27.95117188 C30.98353581 25.5044134 31.00001089 23.05794205 31.00585938 20.61108398 C31.01539971 18.24150321 31.04918773 15.8731997 31.0859375 13.50390625 C31.08089203 12.77667862 31.07584656 12.04945099 31.07064819 11.30018616 C31.16438518 6.44177027 32.11565506 3.87751198 35.625 0.5 C38.0625 -0.12890625 38.0625 -0.12890625 40.625 -0.0625 C41.470625 -0.06378906 42.31625 -0.06507813 43.1875 -0.06640625 C46.43794274 0.68890496 47.53861383 1.91831556 49.625 4.5 C50.13293457 7.18482971 50.13293457 7.18482971 50.14257812 10.28735352 C50.15518677 11.4527919 50.16779541 12.61823029 50.18078613 13.81898499 C50.17268921 15.076259 50.16459229 16.33353302 50.15625 17.62890625 C50.1600769 18.92892075 50.16390381 20.22893524 50.16784668 21.56834412 C50.17374191 24.323181 50.16518883 27.07749894 50.14648438 29.83227539 C50.12385074 33.33351752 50.13671586 36.83352242 50.16077423 40.33471775 C50.17887893 43.70370735 50.1661167 47.07238171 50.15625 50.44140625 C50.16434692 51.68451065 50.17244385 52.92761505 50.18078613 54.20838928 C50.0611717 65.4738814 47.6810338 74.39360262 39.77734375 82.62109375 C31.34673028 89.9806674 21.38221645 90.19170571 10.625 89.5 C7.45318589 88.81202905 4.57434894 87.84510056 1.625 86.5 C0.92117188 86.18160156 0.21734375 85.86320313 -0.5078125 85.53515625 C-3.26849052 84.00465483 -4.10175189 82.36480825 -5.375 79.5 C-5.72823155 76.08542834 -5.96887696 73.65063662 -4.375 70.5625 C-1.14501073 68.8465682 2.09774749 68.97192765 5.625 69.5 C6.57375 69.995 7.5225 70.49 8.5 71 C13.93712523 73.60982011 19.34796101 73.259013 25 71.375 C28.22360609 69.07242422 29.82591635 67.02897178 31.625 63.5 C31.96094133 60.24822148 31.96094133 60.24822148 31.625 57.5 C30.820625 58.325 30.01625 59.15 29.1875 60 C23.18486236 64.30517044 14.63762116 63.58065099 7.625 62.5 C2.34295516 60.6565513 -1.40739053 57.22619286 -4.375 52.5 C-7.02914991 46.48655069 -7.82176845 41.64439327 -7.7734375 35.109375 C-7.77630768 34.24233948 -7.77917786 33.37530396 -7.78213501 32.48199463 C-7.7841635 30.66344544 -7.77871935 28.84487382 -7.76611328 27.02636719 C-7.74996313 24.24364795 -7.76604312 21.46236372 -7.78515625 18.6796875 C-7.78317513 16.9062468 -7.77933418 15.132807 -7.7734375 13.359375 C-7.77951019 12.53016541 -7.78558289 11.70095581 -7.7918396 10.84661865 C-7.74897327 7.33486685 -7.7031535 5.09311218 -5.98046875 1.97949219 C-3.91042784 0.0718815 -2.7900523 -0.03808945 0 0 Z " fill="#4178A9" transform="translate(770.375,662.5)"/>
<path d="M0 0 C0.92468582 -0.01606293 1.84937164 -0.03212585 2.80207825 -0.04867554 C7.03292127 -0.09310935 11.26360715 -0.13418958 15.49462891 -0.15722656 C17.72650579 -0.17378905 19.95832957 -0.20108271 22.18994141 -0.23925781 C25.40644877 -0.29400485 28.6217126 -0.31589761 31.83862305 -0.33056641 C32.83461014 -0.35323578 33.83059723 -0.37590515 34.85676575 -0.39926147 C39.57251609 -0.38487388 41.80278968 -0.35725829 45.67138672 2.53808594 C47.5378418 5.19287109 47.5378418 5.19287109 48.1003418 8.19287109 C47.41426523 11.85194613 46.11049866 13.54454785 43.5378418 16.19287109 C40.47189586 17.72584406 37.26672327 17.31418564 33.9050293 17.29052734 C33.15319366 17.2891124 32.40135803 17.28769745 31.6267395 17.28623962 C29.2220667 17.28063575 26.81748652 17.26808266 24.4128418 17.25537109 C22.78393689 17.25035659 21.15503053 17.2457936 19.52612305 17.24169922 C15.52996478 17.23151533 11.53400715 17.21194081 7.5378418 17.19287109 C7.5378418 22.47287109 7.5378418 27.75287109 7.5378418 33.19287109 C9.65706055 33.14646484 11.7762793 33.10005859 13.9597168 33.05224609 C16.0182862 33.02102741 18.07682897 32.99675312 20.13549805 32.97314453 C21.56335301 32.95306127 22.99112604 32.92578857 24.41870117 32.89111328 C26.47424548 32.8424444 28.52870035 32.81987142 30.5847168 32.80224609 C32.4385498 32.7708252 32.4385498 32.7708252 34.32983398 32.73876953 C37.5378418 33.19287109 37.5378418 33.19287109 39.93725586 35.00244141 C41.5378418 37.19287109 41.5378418 37.19287109 42.1003418 40.63037109 C41.38542968 45.15814781 40.08491252 46.36210203 36.5378418 49.19287109 C33.30810547 49.76049805 33.30810547 49.76049805 29.70581055 49.68115234 C28.41352539 49.66503906 27.12124023 49.64892578 25.78979492 49.63232422 C24.43496023 49.59055383 23.08014252 49.54822918 21.7253418 49.50537109 C20.35103313 49.48027178 18.97668064 49.45746145 17.60229492 49.43701172 C14.24700663 49.37814701 10.89228445 49.28846952 7.5378418 49.19287109 C7.5378418 54.47287109 7.5378418 59.75287109 7.5378418 65.19287109 C11.47463867 65.10585938 11.47463867 65.10585938 15.4909668 65.01708984 C18.0360207 64.97808385 20.58104118 64.94773112 23.1262207 64.91821289 C24.89362518 64.89308469 26.6609259 64.85897593 28.42797852 64.81567383 C30.97006829 64.75494375 33.51078345 64.72664594 36.0534668 64.70458984 C37.23649384 64.6658802 37.23649384 64.6658802 38.44342041 64.62638855 C42.36454662 64.62438868 44.12898915 64.81137351 47.04467773 67.53198242 C48.84822828 70.74599442 49.00193567 72.55746906 48.5378418 76.19287109 C47.67036717 78.79529498 47.09789898 79.85050302 44.75279236 81.28408813 C42.28575194 82.29630228 40.50802784 82.45839906 37.84863281 82.48339844 C36.92409805 82.49615814 35.99956329 82.50891785 35.04701233 82.52206421 C33.55940651 82.52540268 33.55940651 82.52540268 32.04174805 82.52880859 C30.50320412 82.53879379 30.50320412 82.53879379 28.93357849 82.54898071 C26.76579582 82.55909922 24.59798205 82.56379798 22.43017578 82.56347656 C19.11593294 82.56785052 15.80302103 82.60418172 12.48901367 82.64208984 C10.38159635 82.64795799 8.2741727 82.6519274 6.16674805 82.65380859 C5.17703506 82.66817963 4.18732208 82.68255066 3.1676178 82.69735718 C-1.2300859 82.66818763 -3.75069979 82.62954584 -7.56396484 80.2890625 C-10.80347809 76.7116399 -10.60085375 74.38237059 -10.63916016 69.61938477 C-10.64573135 68.94437424 -10.65230255 68.26936371 -10.65907288 67.57389832 C-10.67881083 65.33621106 -10.69046978 63.09859094 -10.70043945 60.86083984 C-10.70451498 60.09663538 -10.70859051 59.33243092 -10.71278954 58.54506874 C-10.73365288 54.49985651 -10.74795315 50.45467823 -10.75732422 46.40942383 C-10.76838644 42.23287659 -10.80278282 38.05686248 -10.84249592 33.88050365 C-10.86865323 30.66769934 -10.87701525 27.45502218 -10.8806057 24.24212074 C-10.88547438 22.70274571 -10.8970965 21.16337645 -10.91564369 19.62410545 C-10.94001689 17.46715563 -10.9390744 15.31158666 -10.93212891 13.15454102 C-10.93799515 11.928134 -10.94386139 10.70172699 -10.9499054 9.43815613 C-10.37023743 5.58126508 -9.17169102 3.94347926 -6.4621582 1.19287109 C-4.10439658 0.01399028 -2.63026397 0.04148287 0 0 Z " fill="#437AAA" transform="translate(573.462158203125,643.80712890625)"/>
<path d="M0 0 C4.13248188 4.61865622 6.73729381 9.87644902 7.6875 16 C6.73304776 21.72671345 4.87232486 25.87148791 0.4375 29.6875 C-0.655625 30.244375 -1.74875 30.80125 -2.875 31.375 C-3.74318359 31.82166016 -3.74318359 31.82166016 -4.62890625 32.27734375 C-12.47397639 35.60881189 -24.8291697 36.05694343 -32.875 33.375 C-32.24689827 36.34517694 -32.24689827 36.34517694 -30.875 39.375 C-28.44614212 40.76358872 -28.44614212 40.76358872 -25.875 41.375 C-25.215 41.705 -24.555 42.035 -23.875 42.375 C-17.32140617 43.13070742 -12.81447853 42.12277955 -6.98046875 39.2109375 C-3.67047403 37.8967652 -1.21664481 38.37250656 2.125 39.375 C4.0625 40.4375 4.0625 40.4375 5.125 42.375 C5.58462331 45.54129391 5.84328211 47.36645772 5.125 50.375 C0.29327205 55.67811604 -5.58352417 58.4010562 -12.73046875 58.87890625 C-24.36317491 59.17278743 -33.52076005 58.556171 -42.78515625 50.76953125 C-44.43320812 49.06478963 -45.64466307 47.39975979 -46.875 45.375 C-47.48988281 44.36759766 -47.48988281 44.36759766 -48.1171875 43.33984375 C-52.36076009 34.80879954 -52.64712593 23.27240269 -49.921875 14.203125 C-48.74283413 11.74057129 -47.46386346 9.59150842 -45.875 7.375 C-45.49085938 6.79621094 -45.10671875 6.21742188 -44.7109375 5.62109375 C-40.46015435 -0.14782624 -34.03633477 -3.93690433 -27.0625 -5.33984375 C-16.97580684 -6.65471625 -8.87343534 -5.01541997 0 0 Z " fill="#8CB581" transform="translate(514.875,667.625)"/>
<path d="M0 0 C5.53846154 3.07692308 5.53846154 3.07692308 7 6 C7.58669084 9.59348142 7.57121737 12.03893101 5.68359375 15.21484375 C0.86451706 21.52168908 -4.67916956 27.03665413 -10.69482422 32.19140625 C-15.12643476 36.05677311 -19.2942161 40.14985091 -23.4453125 44.3125 C-24.60557449 45.4713269 -24.60557449 45.4713269 -25.78927612 46.65356445 C-27.4123408 48.27595307 -29.03416118 49.89958739 -30.65478516 51.52441406 C-33.12160129 53.9965939 -35.59372003 56.46338051 -38.06640625 58.9296875 C-39.65136244 60.51530443 -41.23600843 62.1012315 -42.8203125 63.6875 C-43.91740036 64.78155151 -43.91740036 64.78155151 -45.03665161 65.89770508 C-48.8056424 69.68380304 -52.39945415 73.52432561 -55.77975464 77.66333008 C-57.92955087 80.01824004 -59.63866071 80.13370336 -62.84375 80.8046875 C-68.64934463 80.73723468 -71.83476292 77.09819413 -75.67724609 73.22357178 C-77.30051802 71.53829126 -78.90002276 69.83238089 -80.5 68.125 C-81.60471178 66.98368047 -82.71146637 65.84433449 -83.8203125 64.70703125 C-92.84234459 55.38736759 -92.84234459 55.38736759 -93.3125 51.25 C-92.91753151 47.14232771 -91.5942368 45.17073386 -89 42 C-86.44211778 39.97133479 -85.05107822 40.00098227 -81.75 39.9375 C-75.4674317 41.71756102 -71.56588329 46.28694953 -67.25 51 C-66.5075 51.66 -65.765 52.32 -65 53 C-61.58144619 52.68237741 -59.93742193 51.28757445 -57.609375 48.8671875 C-56.98160156 48.22523438 -56.35382813 47.58328125 -55.70703125 46.921875 C-55.06121094 46.24640625 -54.41539062 45.5709375 -53.75 44.875 C-50.09078917 41.08857735 -46.4676345 37.3413371 -42.4453125 33.9375 C-35.62971929 28.07682056 -29.44394875 21.50902866 -23.125 15.125 C-20.5054633 12.47891394 -17.88265329 9.83613587 -15.2578125 7.1953125 C-14.65889191 6.58809357 -14.05997131 5.98087463 -13.44290161 5.35525513 C-8.75955972 0.6440205 -6.74453166 -0.56204431 0 0 Z " fill="#EC8F5E" transform="translate(567,404)"/>
<path d="M0 0 C2.0625 1.5 2.0625 1.5 4.0625 4.5 C4.51435216 8.03950857 4.48359443 9.83326715 2.5625 12.875 C-0.88886839 15.11838945 -3.98624608 15.17140448 -7.9375 14.5 C-8.88625 14.005 -9.835 13.51 -10.8125 13 C-15.19370045 10.89702379 -19.15973839 11.24506015 -23.9375 11.5 C-24.2675 13.15 -24.5975 14.8 -24.9375 16.5 C-20.69832026 18.78709545 -16.73354211 20.17334831 -12.0625 21.3125 C-4.71823811 23.3443866 0.03205798 26.09075273 5.0625 31.75 C7.15450031 37.50300086 6.9346074 43.30837415 4.375 48.875 C1.710897 53.56079818 -2.65418909 57.39188257 -7.8125 59.1328125 C-18.12890438 61.52227381 -28.25391262 61.5088282 -37.82421875 56.515625 C-40.60401265 54.76563368 -42.09588967 53.26241549 -43.9375 50.5 C-44.55453539 46.44519599 -44.25788101 44.95630023 -41.875 41.5625 C-38.9375 39.5 -38.9375 39.5 -35.5 39.5 C-31.9375 40.5 -31.9375 40.5 -29.3125 42.0625 C-24.00813492 44.32176661 -18.62581465 43.72787017 -12.9375 43.5 C-12.6075 41.85 -12.2775 40.2 -11.9375 38.5 C-12.53699463 38.31937012 -13.13648926 38.13874023 -13.75415039 37.95263672 C-16.50863734 37.11143814 -19.2540051 36.24350071 -22 35.375 C-23.41442383 34.94960938 -23.41442383 34.94960938 -24.85742188 34.515625 C-32.23152711 32.15180032 -37.43934201 29.12635837 -41.875 22.6875 C-43.46703777 17.91138669 -43.93336444 13.41646015 -42.28125 8.578125 C-39.4337515 3.0304124 -34.89668053 -1.28661217 -29.13671875 -3.6484375 C-18.97300769 -6.35379649 -9.18804779 -4.69176908 0 0 Z " fill="#437BAC" transform="translate(746.9375,666.5)"/>
<path d="M0 0 C0.8065654 -0.00570007 1.6131308 -0.01140015 2.44413757 -0.01727295 C4.15309333 -0.02672695 5.86206735 -0.03325852 7.57104492 -0.03710938 C10.17854916 -0.0467982 12.78525953 -0.07781 15.39257812 -0.109375 C17.05338074 -0.11590685 18.71418899 -0.12115661 20.375 -0.125 C21.1522493 -0.1373468 21.9294986 -0.1496936 22.7303009 -0.16241455 C27.2993973 -0.14373127 30.37607596 0.18275547 33.88671875 3.203125 C36.38420931 7.42758712 37.25822658 10.50488815 37.22729492 15.39208984 C37.22695503 17.19327774 37.22695503 17.19327774 37.22660828 19.03085327 C37.21112442 20.31231232 37.19564056 21.59377136 37.1796875 22.9140625 C37.1740856 24.25069704 37.16981831 25.58733778 37.16682434 26.92398071 C37.15542209 30.42577404 37.12599572 33.92718842 37.0927124 37.42883301 C37.0619111 41.00849279 37.04829762 44.58821437 37.03320312 48.16796875 C37.00112079 55.17984222 36.9499812 62.19146537 36.88671875 69.203125 C36.55671875 69.203125 36.22671875 69.203125 35.88671875 69.203125 C35.88671875 52.373125 35.88671875 35.543125 35.88671875 18.203125 C25.65671875 18.203125 15.42671875 18.203125 4.88671875 18.203125 C4.88671875 38.333125 4.88671875 58.463125 4.88671875 79.203125 C0.61963565 77.49629176 -2.06814471 75.96006286 -5.67578125 73.265625 C-7.06990234 72.23115234 -7.06990234 72.23115234 -8.4921875 71.17578125 C-9.35714844 70.52480469 -10.22210937 69.87382812 -11.11328125 69.203125 C-11.81633896 68.78420486 -12.51939667 68.36528473 -13.24375916 67.93367004 C-15.11328125 66.203125 -15.11328125 66.203125 -15.62794495 63.64286804 C-15.63414352 62.61949844 -15.6403421 61.59612885 -15.64672852 60.54174805 C-15.66256485 59.38011642 -15.67840118 58.2184848 -15.69471741 57.02165222 C-15.6872776 55.13728203 -15.6872776 55.13728203 -15.6796875 53.21484375 C-15.68588608 51.92375198 -15.69208466 50.63266022 -15.69847107 49.30244446 C-15.70888203 46.56774088 -15.70430772 43.83355732 -15.68969727 41.09887695 C-15.67255241 37.60477648 -15.69594362 34.1123271 -15.73118687 30.61841106 C-15.75852366 27.27545988 -15.74841899 23.93290142 -15.7421875 20.58984375 C-15.75544571 19.33966965 -15.76870392 18.08949554 -15.78236389 16.80143738 C-15.67878812 7.12336562 -15.67878812 7.12336562 -12.69897461 3.42895508 C-8.51042093 -0.1766576 -5.32698833 0.02890133 0 0 Z " fill="#90B785" transform="translate(591.11328125,303.796875)"/>
<path d="M0 0 C4.26698906 2.34949664 7.19524363 5.46280875 9 10 C9.75569145 15.94738983 9.3894961 20.91575586 6 26 C3.1463776 29.2995009 1.16115335 30.7730975 -3.26953125 31.23828125 C-9.05034894 31.40699943 -12.51856577 31.04422113 -17 27 C-20.8988684 21.57143204 -20.79042966 16.4727407 -20 10 C-18.3125 6.5 -18.3125 6.5 -16 4 C-14.9790625 2.824375 -14.9790625 2.824375 -13.9375 1.625 C-9.37289743 -0.90009929 -5.08534428 -0.97487287 0 0 Z " fill="#FBFCFA" transform="translate(324,679)"/>
<path d="M0 0 C4.18145284 1.72712182 6.42475328 4.32107611 9 8 C10.79910157 13.39730471 10.69468904 18.10048284 8.375 23.25 C6.21475009 27.07371761 4.07365241 29.15532721 0 31 C-4.68917782 31.80818864 -8.04634612 31.44150642 -12.375 29.4375 C-17.19776961 24.95921394 -18.16946324 20.80121154 -18.4375 14.4375 C-18.29656168 9.54492686 -17.34855363 6.72061514 -14 3 C-9.62845075 -0.89617822 -5.61757836 -0.66680198 0 0 Z " fill="#F9FAFA" transform="translate(665,679)"/>
<path d="M0 0 C3.125 1.6875 3.125 1.6875 5 4 C5.625 6.5 5.625 6.5 5 9 C2.82086715 11.42224097 1.08785699 12.8409906 -2.19140625 13.3203125 C-4.74288054 13.39344393 -7.26199089 13.34890117 -9.8125 13.25 C-10.69615234 13.23195313 -11.57980469 13.21390625 -12.49023438 13.1953125 C-14.66062543 13.14838513 -16.83045519 13.07664731 -19 13 C-18.09575765 7.99317663 -16.84490413 4.62127939 -12.9375 1.1875 C-8.60408895 -0.56430447 -4.60831137 -0.67991479 0 0 Z " fill="#FBFDF9" transform="translate(500,677)"/>
<path d="M0 0 C0.556875 0.268125 1.11375 0.53625 1.6875 0.8125 C1.19378906 1.08320313 0.70007813 1.35390625 0.19140625 1.6328125 C-2.15282837 3.20821363 -3.65530718 4.50199077 -5.3125 6.8125 C-6.22659624 11.48685575 -6.35809137 16.05797091 -6.3125 20.8125 C-6.6425 20.8125 -6.9725 20.8125 -7.3125 20.8125 C-7.44809675 18.24821485 -7.54683188 15.69114784 -7.625 13.125 C-7.66689453 12.40376953 -7.70878906 11.68253906 -7.75195312 10.93945312 C-7.84720897 6.76724713 -7.61096813 5.21782075 -5.04296875 1.73046875 C-2.3125 -0.1875 -2.3125 -0.1875 0 0 Z " fill="#5086B1" transform="translate(433.3125,453.1875)"/>
<path d="M0 0 C0.99 0.33 1.98 0.66 3 1 C2.38125 1.7425 1.7625 2.485 1.125 3.25 C-0.60437281 5.48801188 -1.86106661 7.43739987 -3 10 C-3.36923077 3.47692308 -3.36923077 3.47692308 -1.5 1.0625 C-1.005 0.711875 -0.51 0.36125 0 0 Z " fill="#4585AF" transform="translate(768,732)"/>
</svg>
